<?xml version="1.0" encoding="UTF-8"?>
<svg xmlns="http://www.w3.org/2000/svg"
     width="2000"
     height="2000"
     viewBox="0 0 2000 26995.5">
   <g transform="translate(50 7000)"><!--
                    Count of colls is  9
                    Max X value is 6300
               Max Lev value is  5999-->
      <line x1="0"
            y1="0"
            x2="7000"
            y2="0"
            stroke="black"
            stroke-width="5"/>
      <line x1="30"
            y1="0"
            x2="30"
            y2="-5999"
            stroke="black"
            stroke-width="5"/>
      <line x1="700"
            y1="0"
            x2="700"
            y2="-1025"
            stroke="red"
            stroke-width="20"/>
      <text x="700"
            y="200"
            text-anchor="end"
            transform="rotate(-45 700, 15)"
            style="font-family: Arial;               font-size  : 200;">C01</text>
      <line x1="1400"
            y1="0"
            x2="1400"
            y2="-1230"
            stroke="red"
            stroke-width="20"/>
      <text x="1400"
            y="200"
            text-anchor="end"
            transform="rotate(-45 1400, 15)"
            style="font-family: Arial;               font-size  : 200;">C02</text>
      <line x1="2100"
            y1="0"
            x2="2100"
            y2="-743"
            stroke="red"
            stroke-width="20"/>
      <text x="2100"
            y="200"
            text-anchor="end"
            transform="rotate(-45 2100, 15)"
            style="font-family: Arial;               font-size  : 200;">C03</text>
      <line x1="2800"
            y1="0"
            x2="2800"
            y2="-398"
            stroke="red"
            stroke-width="20"/>
      <text x="2800"
            y="200"
            text-anchor="end"
            transform="rotate(-45 2800, 15)"
            style="font-family: Arial;               font-size  : 200;">C04</text>
      <line x1="3500"
            y1="0"
            x2="3500"
            y2="-271"
            stroke="red"
            stroke-width="20"/>
      <text x="3500"
            y="200"
            text-anchor="end"
            transform="rotate(-45 3500, 15)"
            style="font-family: Arial;               font-size  : 200;">C05</text>
      <line x1="4200"
            y1="0"
            x2="4200"
            y2="-2278"
            stroke="red"
            stroke-width="20"/>
      <text x="4200"
            y="200"
            text-anchor="end"
            transform="rotate(-45 4200, 15)"
            style="font-family: Arial;               font-size  : 200;">C06</text>
      <line x1="4900"
            y1="0"
            x2="4900"
            y2="-5999"
            stroke="red"
            stroke-width="20"/>
      <text x="4900"
            y="200"
            text-anchor="end"
            transform="rotate(-45 4900, 15)"
            style="font-family: Arial;               font-size  : 200;">C07</text>
      <line x1="5600"
            y1="0"
            x2="5600"
            y2="-982.5"
            stroke="red"
            stroke-width="20"/>
      <text x="5600"
            y="200"
            text-anchor="end"
            transform="rotate(-45 5600, 15)"
            style="font-family: Arial;               font-size  : 200;">C08</text>
      <line x1="6300"
            y1="0"
            x2="6300"
            y2="-139.5"
            stroke="red"
            stroke-width="20"/>
      <text x="6300"
            y="200"
            text-anchor="end"
            transform="rotate(-45 6300, 15)"
            style="font-family: Arial;               font-size  : 200;">C10</text>
   </g>
</svg>
